<?xml version="1.0" encoding="UTF-8"?>
<svg version="1.1" xmlns="http://www.w3.org/2000/svg" width="1002" height="156">
<path d="M0 0 C0 47.19 0 94.38 0 143 C-5.94 143 -11.88 143 -18 143 C-21 134.375 -21 134.375 -21 131 C-21.43828125 131.43570313 -21.8765625 131.87140625 -22.328125 132.3203125 C-31.82190247 141.2352011 -42.03733713 145.41402704 -55.0078125 145.203125 C-65.39215068 144.49818298 -73.42091207 141.22045601 -81 134 C-93.73635246 118.56486654 -94.16345595 99.05952384 -93 80 C-92.29072919 74.45602274 -90.86134714 69.27273597 -89 64 C-88.72285156 63.20980469 -88.44570313 62.41960937 -88.16015625 61.60546875 C-84.57937124 53.23930286 -77.3613223 45.86981697 -69.2421875 41.89453125 C-58.14229822 37.46617821 -46.15651931 37.90168679 -35 42 C-30.39759859 44.48082315 -26.69355529 47.30644471 -23 51 C-23 37.47 -23 23.94 -23 10 C-3 0 -3 0 0 0 Z M-63.8125 65.75 C-71.36547674 76.97156545 -71.46982645 92.46774319 -69.46875 105.4453125 C-67.23318727 114.16886708 -63.84196172 120.17250784 -56.1875 125.1875 C-48.5919253 128.00871346 -40.30525445 127.28932181 -32.91796875 124.1015625 C-27.60297107 120.83613909 -25.15588722 115.70151991 -23 110 C-21.69802178 104.4674652 -21.77769759 99.03223296 -21.75 93.375 C-21.729375 92.34503906 -21.70875 91.31507812 -21.6875 90.25390625 C-21.64007754 80.82869141 -22.80031227 71.47609403 -29 64 C-35.12146491 58.20071745 -41.65078227 57.48179013 -49.8046875 57.62109375 C-56.04421287 58.36098857 -59.45077085 61.48519816 -63.8125 65.75 Z " fill="#0057A2" transform="translate(902,7)"/>
<path d="M0 0 C0 17.49 0 34.98 0 53 C1.98 50.69 3.96 48.38 6 46 C15.72368044 38.58420881 27.11881578 38.24776855 38.859375 39.2421875 C47.32265002 40.41365777 54.38503868 43.98491434 60.375 50.125 C67.89394455 60.24459532 67.54618059 72.03762436 67.390625 84.015625 C67.38314757 85.72482638 67.37746176 87.43403643 67.37347412 89.14324951 C67.35833578 93.60183147 67.31915874 98.05987687 67.2746582 102.51824951 C67.233448 107.08370713 67.2154086 111.64925301 67.1953125 116.21484375 C67.1526504 125.14350062 67.0824002 134.07162137 67 143 C59.74 143 52.48 143 45 143 C44.970271 140.01839844 44.970271 140.01839844 44.93994141 136.9765625 C44.87199084 130.3867195 44.79520228 123.7970251 44.71247292 117.20735168 C44.66266635 113.21460398 44.61633582 109.22188075 44.578125 105.22900391 C44.54107348 101.37094129 44.49466155 97.51309152 44.44193649 93.6552124 C44.42349751 92.18816893 44.40835142 90.72108002 44.39665604 89.25396729 C44.49672014 74.67657889 44.49672014 74.67657889 38 62 C31.49480585 58.08379835 25.39889279 58.13815095 18 59 C12.91324398 60.55391763 9.22522098 62.71194718 5.5625 66.5625 C1.16442861 76.23825706 0.54098955 86.02031813 0.48828125 96.515625 C0.47138658 97.86612527 0.45323014 99.21661027 0.43388367 100.56707764 C0.38689573 104.07842227 0.35675863 107.58970506 0.33044434 111.10125732 C0.30037636 114.70174378 0.25393817 118.30201784 0.20898438 121.90234375 C0.12353614 128.93478654 0.05745284 135.96726453 0 143 C-7.59 143 -15.18 143 -23 143 C-23 99.11 -23 55.22 -23 10 C-3 0 -3 0 0 0 Z " fill="#EB1E3F" transform="translate(139,7)"/>
<path d="M0 0 C1.60198242 -0.02416992 1.60198242 -0.02416992 3.23632812 -0.04882812 C14.9817784 -0.05600311 24.71531905 2.73110001 33.3125 10.9375 C40.57863147 20.7046605 40.10063899 31.90028964 39.953125 43.44921875 C39.94564976 45.18226972 39.93996291 46.91532923 39.93597412 48.64839172 C39.92081858 53.17438759 39.8816259 57.69985687 39.8371582 62.22564697 C39.7959859 66.85804118 39.77791656 71.49052181 39.7578125 76.12304688 C39.71511989 85.18646461 39.64485479 94.2493558 39.5625 103.3125 C34.2825 103.3125 29.0025 103.3125 23.5625 103.3125 C22.84635417 101.359375 22.13020833 99.40625 21.4140625 97.453125 C20.57250989 95.33766248 19.60923506 93.33315376 18.5625 91.3125 C18.0778125 91.84359375 17.593125 92.3746875 17.09375 92.921875 C9.56106075 100.8601706 1.52432294 105.11041232 -9.5859375 105.61328125 C-10.99466352 105.63268021 -12.40368557 105.63627954 -13.8125 105.625 C-14.55491943 105.61936035 -15.29733887 105.6137207 -16.06225586 105.60791016 C-25.55510956 105.39877541 -33.61264506 103.25895592 -40.4375 96.3125 C-46.75438786 88.06679142 -48.25782582 78.071545 -46.9609375 67.94140625 C-45.19508565 59.07261302 -40.95543451 53.34643861 -33.4375 48.3125 C-17.40049326 40.04210647 0.04541592 41.03184669 17.5625 41.3125 C16.8378447 30.39671998 16.8378447 30.39671998 11.5625 21.3125 C4.57919724 17.20408969 -2.70155296 17.0401866 -10.56396484 18.78417969 C-17.00793871 20.51825785 -23.26666329 22.7778377 -29.4375 25.3125 C-30.64000158 23.06942972 -31.8244162 20.8196209 -33 18.5625 C-33.34224609 17.92828125 -33.68449219 17.2940625 -34.03710938 16.640625 C-35.34999799 14.09441678 -36.40590317 11.90978193 -36.55859375 9.0234375 C-34.69448504 6.17856079 -32.09657536 5.73377496 -28.9375 4.6875 C-27.7515625 4.28273437 -26.565625 3.87796875 -25.34375 3.4609375 C-16.78722694 0.86900997 -8.95914116 -0.02693668 0 0 Z M-20.92578125 63.84375 C-24.13145944 68.51456633 -24.30397176 73.842897 -23.4375 79.3125 C-21.60449941 83.51312635 -19.76626158 85.44254124 -15.625 87.1875 C-8.2682042 89.46363572 -1.39276545 88.39889904 5.5625 85.3125 C11.41572472 81.39716725 15.4092335 76.99764516 17.125 70.02734375 C17.61708579 66.97377569 17.65897226 64.091476 17.625 61 C17.61597656 59.93136719 17.60695313 58.86273438 17.59765625 57.76171875 C17.58605469 56.95347656 17.57445312 56.14523438 17.5625 55.3125 C-3.21462473 54.63362716 -3.21462473 54.63362716 -20.92578125 63.84375 Z " fill="#EB1E3F" transform="translate(537.4375,45.6875)"/>
<path d="M0 0 C5.92153537 5.02043216 9.21963538 10.47547025 11 18 C11.17032965 20.72016307 11.25441507 23.33118516 11.22705078 26.04663086 C11.22734283 26.81818512 11.22763489 27.58973938 11.22793579 28.38467407 C11.22655271 30.91151541 11.21104018 33.43805451 11.1953125 35.96484375 C11.19157873 37.72603698 11.18873348 39.48723229 11.18673706 41.24842834 C11.17912927 45.86636162 11.15950549 50.48416755 11.1373291 55.10205078 C11.11680898 59.82127154 11.10772219 64.54051304 11.09765625 69.25976562 C11.07625672 78.50657515 11.04109804 87.75325702 11 97 C5.72 97 0.44 97 -5 97 C-6.32 93.04 -7.64 89.08 -9 85 C-9.94875 85.86625 -10.8975 86.7325 -11.875 87.625 C-23.3986566 97.40967421 -34.05984478 99.88214484 -49 99 C-57.22388985 98.10445371 -63.63585797 94.77618895 -69.3125 88.75 C-75.68159477 80.59339362 -75.97926896 70.9504564 -75.25 60.96630859 C-74.29749448 53.47462944 -69.91932055 48.01968621 -64.140625 43.4609375 C-48.96792664 33.10584774 -28.5667957 34.36396406 -11 34 C-11.12340742 32.25982306 -11.25689464 30.52035935 -11.39453125 28.78125 C-11.46776611 27.81251953 -11.54100098 26.84378906 -11.61645508 25.84570312 C-12.16015518 21.81173216 -13.32002278 18.11317902 -16 15 C-22.71850681 10.76910359 -30.34311977 11.00571226 -38 12 C-42.06457507 12.93388006 -45.89810467 14.32744825 -49.79296875 15.80859375 C-52.55509959 16.83472031 -55.10142304 17.52509191 -58 18 C-59.19984797 15.73495035 -60.38494769 13.46410112 -61.5625 11.1875 C-61.90474609 10.54490234 -62.24699219 9.90230469 -62.59960938 9.24023438 C-63.4765023 7.53073605 -64.24515617 5.76678706 -65 4 C-64 1 -64 1 -61.65625 -0.28125 C-42.39809247 -7.71756825 -18.36950275 -11.70506069 0 0 Z M-47 55 C-50.52242927 58.81668626 -52.29147464 62.4743659 -52.5 67.6875 C-52.21513051 72.41633351 -50.54978734 75.19191477 -47.5 78.75 C-42.72918066 82.72568279 -34.77587374 81.43460773 -29 81 C-21.7879992 79.34703047 -17.05800142 75.0639453 -13 69 C-10.15129073 62.68329684 -10.81587811 55.80228094 -11 49 C-29.99415363 48.05344401 -29.99415363 48.05344401 -47 55 Z " fill="#0057A2" transform="translate(789,53)"/>
<path d="M0 0 C10.30863098 9.64759225 13.95434502 20.23220949 15 34 C15 38.95 15 43.9 15 49 C-7.44 49 -29.88 49 -53 49 C-49.59050538 64.53796301 -49.59050538 64.53796301 -39 75 C-26.76027852 81.27159283 -11.71741285 78.03840233 0.7734375 74.1328125 C2.26610571 73.62559515 3.75331104 73.10153795 5.23046875 72.55078125 C7 72 7 72 10 72 C10 77.94 10 83.88 10 90 C-8.92777816 97.90390736 -29.14662009 100.12195424 -48.7421875 93.00390625 C-59.3893347 88.21103157 -67.88081333 79.93588989 -72.1484375 69.078125 C-78.21814117 51.77301241 -78.10781481 31.32863963 -70.25 14.5625 C-64.02259142 3.19137403 -55.50564054 -3.78039758 -43.00390625 -7.4765625 C-28.46600677 -11.27398654 -12.00949844 -9.44336629 0 0 Z M-43.8125 12.625 C-49.80060296 19.12636893 -51.00146077 24.01314693 -52 33 C-37.48 33 -22.96 33 -8 33 C-8 24.44061576 -8.87547591 18.71697286 -15 12.5625 C-23.78384864 5.82884301 -34.79987245 7.41770408 -43.8125 12.625 Z " fill="#0057A2" transform="translate(986,55)"/>
<path d="M0 0 C1.0828125 0.00612305 2.165625 0.01224609 3.28125 0.01855469 C15.92192709 0.26222136 27.48371729 2.67011971 38.8125 8.4375 C36.81636732 15.1561905 34.0833579 21.24484808 30.8125 27.4375 C25.85736311 26.60215125 21.23196254 24.93146533 16.515625 23.25390625 C5.33997398 19.39944702 -5.09532421 19.5501235 -16.1875 23.4375 C-26.48221673 28.62415118 -32.49192599 36.65219003 -36.1875 47.4375 C-40.90992432 65.85495484 -40.84079406 84.81382293 -31.78515625 101.88671875 C-28.87786394 106.52843483 -26.12324597 109.83587284 -21.375 112.625 C-20.56417969 113.11355469 -19.75335938 113.60210937 -18.91796875 114.10546875 C-12.71751433 117.13029701 -6.84623031 117.85347716 -0.0625 117.875 C0.79263184 117.87886719 1.64776367 117.88273437 2.52880859 117.88671875 C12.00181905 117.72164178 20.89909224 115.45865746 29.97509766 112.89648438 C31.8125 112.4375 31.8125 112.4375 33.8125 112.4375 C33.8125 119.0375 33.8125 125.6375 33.8125 132.4375 C12.46078232 139.55473923 -12.67999753 142.50349456 -33.625 132.25 C-48.53016471 124.13684784 -56.01934027 112.36759234 -61.1875 96.4375 C-62.0383153 93.45267257 -62.69235428 90.50049444 -63.1875 87.4375 C-63.29835938 86.79296875 -63.40921875 86.1484375 -63.5234375 85.484375 C-66.45839112 64.70173046 -63.91061554 42.19113174 -52.1875 24.4375 C-38.96625111 7.48780987 -21.42208021 -0.2088316 0 0 Z " fill="#EB1E3F" transform="translate(71.1875,13.5625)"/>
<path d="M0 0 C7.90299459 6.26990345 12.88917528 14.72932786 15.375 24.5 C16.33502058 32.94818106 16 41.49744728 16 50 C-6.11 50 -28.22 50 -51 50 C-48.69229655 63.97062457 -48.69229655 63.97062457 -40.125 74.5 C-30.17961146 81.01975471 -18.35401428 79.81675421 -7.125 77.6875 C-1.84520232 76.53494541 2.99979321 75.01931428 8 73 C8.99 73 9.98 73 11 73 C11 78.94 11 84.88 11 91 C-5.81285492 99.70665701 -27.05404259 100.53722849 -45 95 C-56.61841672 90.58855665 -64.36420018 83.01412655 -70 72 C-76.81021655 55.7793024 -76.66803032 36.45071363 -70.75 19.9375 C-66.33469131 9.61799945 -58.86017652 0.53731919 -48.5625 -4.375 C-33.06976737 -10.43271207 -13.78185798 -10.00887785 0 0 Z M-42.3125 14.125 C-48.6699024 20.24178359 -49.90099974 25.20799794 -51 34 C-36.15 34 -21.3 34 -6 34 C-6.98824076 25.1058332 -8.07604583 18.73709921 -14.625 12.5 C-24.19445043 8.24691092 -33.85657839 7.30721818 -42.3125 14.125 Z " fill="#EB1E3F" transform="translate(289,54)"/>
<path d="M0 0 C1.81951172 0.04060547 1.81951172 0.04060547 3.67578125 0.08203125 C6.66068311 0.15254074 9.64191838 0.25104924 12.625 0.375 C9.78990239 4.93551501 6.67743872 8.54092522 2.8125 12.25 C-1.22611577 16.20076672 -5.06993173 20.21079359 -8.734375 24.515625 C-10.53647789 26.55800828 -12.43438947 28.46401711 -14.375 30.375 C-21.60102671 37.05454764 -21.60102671 37.05454764 -26.375 45.375 C-25.43319778 47.27609243 -25.43319778 47.27609243 -23.90234375 49.19140625 C-23.3395874 49.94623291 -22.77683105 50.70105957 -22.19702148 51.47875977 C-21.57512939 52.29014404 -20.9532373 53.10152832 -20.3125 53.9375 C-19.67707275 54.78304443 -19.04164551 55.62858887 -18.38696289 56.49975586 C-13.52990702 62.93731555 -8.56277105 69.28936402 -3.58911133 75.63696289 C0.70937277 81.14308448 4.89110037 86.72604153 9 92.375 C9.565979 93.147229 10.13195801 93.91945801 10.71508789 94.71508789 C11.22934326 95.42785889 11.74359863 96.14062988 12.2734375 96.875 C12.95672119 97.81859375 12.95672119 97.81859375 13.65380859 98.78125 C14.625 100.375 14.625 100.375 14.625 102.375 C-7.02027109 105.05309031 -7.02027109 105.05309031 -13.72119141 100.93212891 C-17.7070956 97.09801086 -20.42331418 92.47276428 -23.07958984 87.65820312 C-25.01900724 84.239916 -27.34800673 81.1507907 -29.6875 78 C-30.48627703 76.87727273 -31.28193368 75.75231789 -32.07421875 74.625 C-35.46108804 69.8408315 -38.91702047 65.10798875 -42.375 60.375 C-46.7077835 61.7767829 -50.4645515 63.82689531 -53.375 67.375 C-53.98435568 70.35537672 -54.21623891 72.54613651 -54.1796875 75.51953125 C-54.20024704 76.6742115 -54.20024704 76.6742115 -54.22122192 77.85221863 C-54.25845265 80.29791071 -54.25481246 82.74156531 -54.25 85.1875 C-54.26813193 86.8509431 -54.2889362 88.51435936 -54.3125 90.17773438 C-54.36929516 94.24467328 -54.37075072 98.30631447 -54.375 102.375 C-61.635 102.375 -68.895 102.375 -76.375 102.375 C-76.67358842 94.63811456 -76.89028024 86.9046408 -77.03417969 79.16333008 C-77.09420848 76.53545665 -77.17586415 73.90797866 -77.28027344 71.28149414 C-78.21827824 47.06349765 -78.21827824 47.06349765 -72.25445557 40.04301453 C-69.77269251 37.60938334 -67.10811352 35.52404011 -64.375 33.375 C-62.70206429 31.5093777 -61.24797425 29.57887957 -59.75 27.5625 C-57.8984375 25.10546875 -57.8984375 25.10546875 -56.375 23.375 C-55.715 23.375 -55.055 23.375 -54.375 23.375 C-54.375 30.635 -54.375 37.895 -54.375 45.375 C-52.745625 43.43625 -51.11625 41.4975 -49.4375 39.5 C-42.66661702 31.4849723 -35.76274171 23.67523788 -28.28125 16.3125 C-25.79813916 13.78868243 -23.49619748 11.13255844 -21.2109375 8.4296875 C-20.60507812 7.75164063 -19.99921875 7.07359375 -19.375 6.375 C-19.02002441 5.8588916 -18.66504883 5.3427832 -18.29931641 4.81103516 C-13.46827109 -1.34169412 -7.25643815 -0.30661006 0 0 Z " fill="#EB1E3F" transform="translate(478.375,47.625)"/>
<path d="M0 0 C4.95 0 9.9 0 15 0 C15 7.26 15 14.52 15 22 C24.57 22 34.14 22 44 22 C44 27.61 44 33.22 44 39 C34.43 39 24.86 39 15 39 C15.088655 46.58233537 15.17913468 54.16425818 15.28729248 61.74627686 C15.33713807 65.27742715 15.38362843 68.80854716 15.421875 72.33984375 C15.46596304 76.39602134 15.5255656 80.45184435 15.5859375 84.5078125 C15.59748871 85.76739777 15.60903992 87.02698303 15.62094116 88.32473755 C15.64081085 89.50550873 15.66068054 90.68627991 15.68115234 91.90283203 C15.69447601 92.93763702 15.70779968 93.97244202 15.7215271 95.03860474 C16.02787705 98.29645605 16.7753685 100.97000333 18 104 C25.37653589 109.42344871 36.81916926 106.23361733 45 105 C45 110.61 45 116.22 45 122 C33.45187935 126.65976798 20.63095931 127.94438869 8.57421875 124.16015625 C1.96127952 121.17981793 -2.66426488 116.60503492 -5.5 109.9375 C-8.48643484 101.62802158 -8.13349782 93.12126597 -8.09765625 84.41015625 C-8.0962413 83.11049423 -8.09482635 81.81083221 -8.09336853 80.4717865 C-8.08957334 77.03756747 -8.07976908 73.60339158 -8.06866455 70.16918945 C-8.05838555 66.65641869 -8.05385708 63.14364088 -8.04882812 59.63085938 C-8.03814376 52.75388688 -8.02057167 45.87694996 -8 39 C-12.62 39 -17.24 39 -22 39 C-22 35.7 -22 32.4 -22 29 C-21.03578125 28.52691406 -20.0715625 28.05382812 -19.078125 27.56640625 C-10.83734854 23.656159 -10.83734854 23.656159 -5.375 16.75 C-4.87442367 15.17951051 -4.4200988 13.59390429 -4 12 C-3.25526852 9.81070073 -2.5051198 7.62323794 -1.75 5.4375 C-0.88375 2.7459375 -0.88375 2.7459375 0 0 Z " fill="#0058A2" transform="translate(604,26)"/>
<path d="M0 0 C-1.41614981 1.93339602 -2.84692514 3.84966702 -4.3125 5.74609375 C-6.00880888 7.93618155 -6.00880888 7.93618155 -7.3125 10.16015625 C-8.74668333 12.30716285 -9.78571307 13.65397081 -12 15 C-15.13060471 14.98638868 -17.86296478 14.41124861 -20.91015625 13.703125 C-29.84843533 11.66912976 -37.97096523 12.98257914 -45.8125 17.6875 C-54.86910541 27.26162572 -54.52382021 40.08617639 -54.31640625 52.41796875 C-54.07464281 58.51465599 -53.11634498 63.68991217 -50 69 C-49.649375 69.60585937 -49.29875 70.21171875 -48.9375 70.8359375 C-45.74180577 75.38536332 -41.23888252 77.63030693 -36 79 C-25.17752437 80.23329108 -14.54146375 78.27291418 -5 73 C-4.34 73 -3.68 73 -3 73 C-3 79.6 -3 86.2 -3 93 C-18.9760358 100.10046036 -35.10031213 101.23681686 -52 96 C-55.23965866 94.6176823 -58.10272912 92.99563056 -61 91 C-62.546875 89.948125 -62.546875 89.948125 -64.125 88.875 C-74.56647584 79.50667584 -78.00113643 65.59514705 -78.875 52.125 C-79.60135815 35.67717841 -77.43504078 19.09854339 -66.296875 6.22265625 C-49.6865151 -9.85097434 -19.65032847 -11.87207345 0 0 Z " fill="#EB1E3F" transform="translate(392,53)"/>
<path d="M0 0 C0.495 11.88 0.495 11.88 1 24 C3.31 21.69 5.62 19.38 8 17 C16.38226392 12.06925652 25.52193059 11.80254022 35 12 C33.49919863 17.07595877 30.40138367 20.10668025 26.8125 23.8125 C25.62165388 25.06830726 24.43154227 26.32481147 23.2421875 27.58203125 C22.67467773 28.17838379 22.10716797 28.77473633 21.52246094 29.38916016 C17.63667066 33.50052069 13.99666584 37.82601398 10.3359375 42.13671875 C4.78367872 48.66249673 -0.85901399 55.05954154 -6.71191406 61.31738281 C-9.75621758 64.59294973 -12.63966768 67.94531514 -15.4375 71.4375 C-20.01914402 77.14577779 -24.98802436 82.44296038 -29.9921875 87.77734375 C-32.29104448 90.22988279 -34.54524663 92.71196996 -36.75 95.25 C-37.27078125 95.84941406 -37.7915625 96.44882813 -38.328125 97.06640625 C-39.61192968 98.55118036 -40.8925872 100.03867611 -42.171875 101.52734375 C-52.794333 113.66474962 -52.794333 113.66474962 -60.0625 115 C-64.51358851 115 -66.44310321 114.66767259 -70 112 C-75.51203751 103.81068713 -78.22646845 90.81174763 -77 81 C-75.55748229 76.98213993 -73.67734523 74.44675962 -70.0625 72.0625 C-67.03168818 71.01099386 -65.15108721 70.40384837 -62 71 C-58.98533386 74.14215202 -58.41186574 77.0083348 -57.8125 81.25 C-57.57466797 82.86648437 -57.57466797 82.86648437 -57.33203125 84.515625 C-57.16767578 85.74539062 -57.16767578 85.74539062 -57 87 C-50.35221689 81.55921661 -44.67608364 75.43227241 -39 69 C-38.071875 67.96166016 -38.071875 67.96166016 -37.125 66.90234375 C-36.03271651 65.67099639 -34.95758192 64.42412886 -33.90380859 63.15966797 C-32 61 -32 61 -29.73291016 58.93041992 C-22.27812173 51.45652449 -21.86105001 44.99392176 -21.85351562 34.81445312 C-21.88053677 32.98045415 -21.90854344 31.14646944 -21.9375 29.3125 C-21.93442009 27.43553574 -21.92729193 25.55857354 -21.91601562 23.68164062 C-21.89732126 19.1197782 -21.93344998 14.56138267 -22 10 C-16.66666667 7.33333333 -11.33333333 4.66666667 -6 2 C-5.30100586 1.62987793 -4.60201172 1.25975586 -3.88183594 0.87841797 C-2 0 -2 0 0 0 Z " fill="#0057A2" transform="translate(424,7)"/>
<path d="M0 0 C0.825 -0.00257812 1.65 -0.00515625 2.5 -0.0078125 C5.08367788 0.12944539 7.47871176 0.55771015 10 1.125 C9.85888117 3.87531587 9.71228835 6.62515418 9.5625 9.375 C9.52318359 10.15230469 9.48386719 10.92960937 9.44335938 11.73046875 C9.38051758 12.86162109 9.38051758 12.86162109 9.31640625 14.015625 C9.27974854 14.70688477 9.24309082 15.39814453 9.20532227 16.11035156 C8.99324476 18.19128329 8.55491323 20.11072422 8 22.125 C7.04480469 22.07859375 6.08960938 22.0321875 5.10546875 21.984375 C-4.97881342 21.70285965 -14.02004103 22.16948172 -21.9375 29.25 C-29.09737072 37.6263985 -29.59918839 46.81057614 -29.609375 57.4453125 C-29.62438901 58.79867499 -29.6411228 60.15201937 -29.65948486 61.50534058 C-29.70281071 65.03321262 -29.72307906 68.56083771 -29.73822021 72.08892822 C-29.75791831 75.7026611 -29.79987303 79.31613206 -29.83984375 82.9296875 C-29.91476794 89.99471572 -29.96322445 97.05965503 -30 104.125 C-37.59 104.125 -45.18 104.125 -53 104.125 C-53 70.465 -53 36.805 -53 2.125 C-47.06 2.125 -41.12 2.125 -35 2.125 C-33.515 10.045 -33.515 10.045 -32 18.125 C-30.5975 16.43375 -29.195 14.7425 -27.75 13 C-20.48277724 4.69460256 -11.12384353 -0.03476201 0 0 Z " fill="#0057A2" transform="translate(708,45.875)"/>
<path d="M0 0 C2.43039121 24.50956058 2.43039121 24.50956058 -2.87109375 31.8515625 C-5.73943121 35.08222041 -8.93259587 37.88329232 -12.29882812 40.58398438 C-14.58053958 42.48322755 -16.43274412 44.64704116 -18.3125 46.9375 C-19.1878192 47.97597694 -20.07522437 49.00531006 -21 50 C-21.33 50 -21.66 50 -22 50 C-22 36.8 -22 23.6 -22 10 C-2 0 -2 0 0 0 Z " fill="#EA1F40" transform="translate(424,7)"/>
</svg>
