<?xml version="1.0" encoding="UTF-8"?>
<svg version="1.1" xmlns="http://www.w3.org/2000/svg" width="751" height="93">
<path d="M0 0 C1.91543119 1.42394973 3.76411475 2.9368925 5.59765625 4.46484375 C3.61765625 6.77484375 1.63765625 9.08484375 -0.40234375 11.46484375 C-1.01980469 11.11550781 -1.63726562 10.76617187 -2.2734375 10.40625 C-9.90159268 6.30771305 -16.81539399 4.05125882 -25.35546875 6.61328125 C-32.5102653 9.58989508 -37.25173589 13.37597608 -40.40234375 20.46484375 C-42.75266461 28.11926708 -42.1204849 36.40037557 -38.40234375 43.46484375 C-34.94344398 49.18533183 -29.33247837 52.44013456 -22.9453125 54.10546875 C-15.17453747 55.23131332 -8.67270169 53.46339583 -2.02734375 49.40234375 C1.54990906 45.73596987 1.54990906 45.73596987 4.59765625 36.46484375 C-2.66234375 36.46484375 -9.92234375 36.46484375 -17.40234375 36.46484375 C-17.40234375 33.16484375 -17.40234375 29.86484375 -17.40234375 26.46484375 C-7.17234375 26.46484375 3.05765625 26.46484375 13.59765625 26.46484375 C16.04596856 31.36146836 14.6250158 38.09554543 13.34375 43.23828125 C10.69538307 51.14178466 4.93700634 57.45939514 -2.296875 61.53125 C-11.19393911 65.54365146 -20.77492253 65.59428428 -29.95703125 62.5 C-39.16303523 58.60288969 -46.53801549 51.97228236 -50.83984375 42.90234375 C-53.72604742 34.79348581 -53.74889069 25.29920921 -50.96484375 17.15234375 C-45.99318669 6.74131277 -37.969034 0.60894369 -27.40234375 -3.53515625 C-18.48818603 -6.32403861 -7.84996988 -5.01632221 0 0 Z " fill="#5780C0" transform="translate(56.40234375,7.53515625)"/>
<path d="M0 0 C0.78375 0.495 1.5675 0.99 2.375 1.5 C2.705 0.84 3.035 0.18 3.375 -0.5 C6.345 -0.5 9.315 -0.5 12.375 -0.5 C12.47422675 6.18940961 12.54663877 12.8783863 12.59472656 19.56835938 C12.61478317 21.84187284 12.64203538 24.1153351 12.67675781 26.38867188 C12.72553712 29.66549349 12.74802897 32.94163025 12.765625 36.21875 C12.78627014 37.22740112 12.80691528 38.23605225 12.82818604 39.27526855 C12.83036536 46.20290109 11.75812059 51.7607062 6.99810791 57.02185059 C1.8791338 61.64550738 -3.53430188 63.00101745 -10.2578125 62.80859375 C-17.34071228 61.88524543 -22.20463863 58.55487369 -26.7265625 53.18359375 C-27.02304688 52.62800781 -27.31953125 52.07242188 -27.625 51.5 C-26.625 48.5 -26.625 48.5 -24.8125 47.3125 C-22.625 46.5 -22.625 46.5 -18.625 46.5 C-16.5 48.9375 -16.5 48.9375 -14.625 51.5 C-11.16760443 53.22869779 -7.40524432 52.98966895 -3.625 52.5 C-0.75470131 50.70606332 0.86631638 49.51736724 2.375 46.5 C2.4439472 45.12657169 2.45967708 43.74997898 2.4375 42.375 C2.416875 41.09625 2.39625 39.8175 2.375 38.5 C1.59125 39.16 0.8075 39.82 0 40.5 C-4.33955478 43.34879008 -8.60780599 43.36138572 -13.625 42.5 C-19.99972189 40.22043173 -24.60134972 36.58525433 -27.625 30.5 C-30.23049003 24.0975647 -30.03196407 17.89776769 -27.94140625 11.36328125 C-25.55676984 5.79912962 -21.77932808 2.55872857 -16.625 -0.5 C-11.01341426 -2.37052858 -5.45214398 -2.25605958 0 0 Z M-15.625 9.5 C-18.81954771 13.7874193 -20.30181223 17.13401893 -20.01953125 22.5078125 C-19.30874826 26.09691474 -17.72167389 28.50475159 -15.625 31.5 C-11.39168568 34.32220955 -7.59631405 34.28619823 -2.625 33.5 C0.64850867 31.0448685 3.13770989 28.43683218 4.375 24.5 C4.89667623 19.19629162 4.61868769 15.51289361 1.71875 10.9765625 C-0.69671174 8.32236326 -3.21840536 7.55294743 -6.625 6.5 C-10.50840615 6.5 -12.34128706 7.42254896 -15.625 9.5 Z " fill="#557FC0" transform="translate(204.625,28.5)"/>
<path d="M0 0 C8 0 8 0 10.09814453 2.02856445 C10.60458496 2.964021 11.11102539 3.89947754 11.6328125 4.86328125 C12.21160156 5.89646484 12.79039062 6.92964844 13.38671875 7.99414062 C13.96035156 9.08919922 14.53398437 10.18425781 15.125 11.3125 C15.99705078 12.8912793 15.99705078 12.8912793 16.88671875 14.50195312 C18.62034067 17.65311153 20.31175338 20.82434819 22 24 C23.1405965 26.09908892 24.28365686 28.19684174 25.4296875 30.29296875 C26.1719458 31.65264771 26.1719458 31.65264771 26.92919922 33.03979492 C27.28256348 33.6866626 27.63592773 34.33353027 28 35 C31.01038691 31.42645956 33.35851486 27.80627699 35.6015625 23.7109375 C35.92410004 23.12583405 36.24663757 22.54073059 36.57894897 21.93789673 C37.59879584 20.08602641 38.6121754 18.23071866 39.625 16.375 C40.64616167 14.512825 41.66867301 12.65140493 42.69247437 10.79067993 C43.61733861 9.10842459 44.5385049 7.42413776 45.45947266 5.73974609 C47 3 47 3 49 0 C51.64 0 54.28 0 57 0 C57 19.8 57 39.6 57 60 C54.69 60 52.38 60 50 60 C49.67 45.48 49.34 30.96 49 16 C44.5699976 23.95574283 44.5699976 23.95574283 40.14550781 31.91455078 C39.30777832 33.41477783 39.30777832 33.41477783 38.453125 34.9453125 C37.88754883 35.96125488 37.32197266 36.97719727 36.73925781 38.02392578 C31.61937131 46.7846524 31.61937131 46.7846524 28.55078125 47.8515625 C24.38615181 46.46122679 23.18073411 43.1103014 21.1875 39.375 C20.80013672 38.68148437 20.41277344 37.98796875 20.01367188 37.2734375 C18.66428572 34.85533751 17.33291835 32.42721635 16 30 C12.04 23.07 12.04 23.07 8 16 C7.67 30.52 7.34 45.04 7 60 C4.69 60 2.38 60 0 60 C0 40.2 0 20.4 0 0 Z " fill="#61656A" transform="translate(308,12)"/>
<path d="M0 0 C29.51515152 0 29.51515152 0 36.3125 6.0625 C39.54328762 9.77192282 39.32719013 13.79995278 39.29296875 18.48828125 C38.7581145 23.07376503 36.15126645 25.84873355 33 29 C33.94875 29.7425 34.8975 30.485 35.875 31.25 C39.14265105 33.80729212 40.73754837 36.1780974 41.3359375 40.33203125 C41.43290647 46.48956063 40.75851471 50.0545859 37 55 C25.81167508 63.8574239 15.70167942 60 0 60 C0 40.2 0 20.4 0 0 Z M8 7 C8 12.94 8 18.88 8 25 C12.3003125 25.1546875 12.3003125 25.1546875 16.6875 25.3125 C17.58170654 25.35802002 18.47591309 25.40354004 19.3972168 25.45043945 C23.75069924 25.52611398 25.47253765 25.41350865 29.01953125 22.6328125 C31.12805964 19.82975897 32 18.49621367 32 15 C30.88783365 12.01471137 30.0299575 9.7679733 27.43359375 7.83203125 C23.72699838 6.56476831 20.13385107 6.79191118 16.25 6.875 C13.5275 6.91625 10.805 6.9575 8 7 Z M8 33 C8 39.27 8 45.54 8 52 C11.23057217 52.13523325 14.4554669 52.23421546 17.6875 52.3125 C18.59951172 52.35439453 19.51152344 52.39628906 20.45117188 52.43945312 C25.04772403 52.5230268 27.28123043 52.51870902 31.1015625 49.76171875 C32.98410789 47.02311877 33.7047655 45.76893519 33.6875 42.5 C33.71199219 41.7678125 33.73648438 41.035625 33.76171875 40.28125 C32.5568919 36.67294805 30.30567566 34.67184557 27 33 C23.6716906 32.42175404 20.48967854 32.52409589 17.125 32.6875 C12.608125 32.8421875 12.608125 32.8421875 8 33 Z " fill="#65686E" transform="translate(437,12)"/>
<path d="M0 0 C5.68086161 3.3375062 9.59227713 8.19149701 11.625 14.4375 C12.49609977 21.78107361 12.21659328 28.42278132 7.625 34.4375 C3.35374389 38.97191406 -0.88433979 42.02343548 -7.20703125 42.7734375 C-14.86355974 42.87378519 -20.47136053 42.19301029 -26.125 36.75390625 C-30.66221276 31.68226217 -32.92189773 27.34730963 -33.375 20.4375 C-32.56966056 13.09996285 -30.03099175 7.63392972 -24.4375 2.6875 C-17.36759867 -2.50671322 -8.14772107 -3.65784009 0 0 Z M-20.25 11.0625 C-22.72538159 14.99398841 -23.67911973 17.81309119 -23.375 22.4375 C-21.84342401 27.54275329 -20.12151244 30.85787367 -15.375 33.4375 C-10.59771376 34.29405594 -7.27501791 33.89569094 -2.9375 31.6875 C0.11709175 29.00541943 1.38861495 27.10318998 1.9609375 23.0703125 C2.0495972 17.3783598 1.73205481 13.75517301 -2.375 9.4375 C-9.02032505 5.6215164 -14.32306085 5.65094687 -20.25 11.0625 Z " fill="#EB4739" transform="translate(109.375,28.5625)"/>
<path d="M0 0 C5.29399017 2.79858511 9.7062712 7.6979252 11.8359375 13.3125 C11.8359375 14.3025 11.8359375 15.2925 11.8359375 16.3125 C8.02916491 17.88352489 4.22054986 19.4499843 0.41015625 21.01220703 C-0.88625933 21.54447786 -2.18216144 22.07800105 -3.47753906 22.61279297 C-5.33784199 23.38055964 -7.20014413 24.14347659 -9.0625 24.90625 C-10.18317871 25.36708984 -11.30385742 25.82792969 -12.45849609 26.30273438 C-15.1640625 27.3125 -15.1640625 27.3125 -17.1640625 27.3125 C-16.2032579 29.7145115 -15.59558987 31.04873705 -13.35546875 32.41796875 C-9.62932496 33.93897932 -6.11024273 33.9944741 -2.1640625 33.3125 C0.53794373 31.8973982 2.49021543 30.30885921 4.8359375 28.3125 C7.1459375 29.9625 9.4559375 31.6125 11.8359375 33.3125 C7.33847234 39.12629643 3.92229558 42.6160602 -3.703125 43.66015625 C-10.83504542 44.05190963 -16.34333718 42.48366959 -22.1640625 38.3125 C-27.0686333 33.46549458 -28.77226936 27.77333944 -29.5390625 21 C-28.85383363 14.2619161 -26.84206053 8.36691117 -21.6640625 3.8125 C-15.25656741 -1.19699616 -7.91093908 -2.51322252 0 0 Z M-17.4765625 13.25 C-19.485799 16.31361714 -19.485799 16.31361714 -19.1640625 20.3125 C-12.22407602 18.15086487 -5.73288681 15.4188786 0.8359375 12.3125 C-2.45293483 8.38439749 -2.45293483 8.38439749 -7.1640625 6.8125 C-12.11051789 7.63690923 -14.38316855 9.32055364 -17.4765625 13.25 Z " fill="#EB483A" transform="translate(271.1640625,27.6875)"/>
<path d="M0 0 C5.22191105 3.63705089 8.71646204 9.1999553 10.0078125 15.3984375 C10.59151402 22.63633635 9.07643921 27.84039955 5.4453125 34.0859375 C0.30042764 38.96698211 -5.49658443 41.68364002 -12.6171875 41.9609375 C-20.03745064 41.55334558 -24.77025545 38.97609487 -29.8671875 33.6484375 C-34.19134972 28.30740608 -35.31624766 23.56013563 -34.8046875 16.7734375 C-33.81745113 10.16916662 -31.09500588 5.70748413 -25.9921875 1.3984375 C-18.02458967 -4.17343615 -8.6319519 -4.36238429 0 0 Z M-21.9921875 9.3984375 C-24.79220975 13.2484681 -25.53515326 16.77183795 -25.34765625 21.44140625 C-24.59733479 25.57229694 -22.02471516 28.25118455 -19.3046875 31.2734375 C-15.60586499 33.07286466 -12.02260116 32.92477059 -7.9921875 32.3984375 C-4.87823393 31.11223929 -3.38656617 29.84721323 -1.1796875 27.3359375 C0.57937867 22.98456328 0.66037008 19.02566398 0.0078125 14.3984375 C-1.82810421 10.35942075 -3.59120494 8.34563181 -7.5546875 6.5234375 C-13.43711688 4.59827879 -17.01835364 6.06182396 -21.9921875 9.3984375 Z " fill="#F9BC16" transform="translate(160.9921875,29.6015625)"/>
<path d="M0 0 C6.4981702 3.43299558 9.53137329 6.7304611 12 13.6875 C12.45280605 16.67601994 12.3125 19.72737122 12.3125 22.75 C1.7525 22.75 -8.8075 22.75 -19.6875 22.75 C-18.01841407 29.51203726 -18.01841407 29.51203726 -13.6875 33.75 C-8.99914844 35.31278385 -4.54236955 35.23387901 0.1875 34 C2.65457577 32.54877896 3.33953346 31.40354511 4.3125 28.75 C6.2925 29.41 8.2725 30.07 10.3125 30.75 C10.3125 34.75 10.3125 34.75 8.921875 36.3828125 C8.30828125 36.87523437 7.6946875 37.36765625 7.0625 37.875 C6.45921875 38.37257812 5.8559375 38.87015625 5.234375 39.3828125 C-0.72184036 43.61995758 -6.52747935 43.58832978 -13.6875 42.75 C-19.6789107 40.47382827 -23.97820043 36.28626832 -26.765625 30.51953125 C-28.95738515 23.93496369 -28.9525527 15.47239062 -26 9.125 C-20.31649079 -0.19516021 -10.0213614 -3.39707166 0 0 Z M-15.6875 8.75 C-18.41975734 11.90814239 -18.41975734 11.90814239 -19.6875 15.75 C-11.7675 15.75 -3.8475 15.75 4.3125 15.75 C2.13190167 8.90174105 2.13190167 8.90174105 -1.6875 6.75 C-7.4057839 5.53134933 -10.70388884 5.23881941 -15.6875 8.75 Z " fill="#666A6F" transform="translate(658.6875,30.25)"/>
<path d="M0 0 C4.2762497 3.73841211 5.72101912 7.69829127 6.2097168 13.21289062 C6.33613558 17.36321644 6.24434776 21.50633157 6.14453125 25.65625 C6.12443461 27.11325669 6.10618943 28.57029015 6.08984375 30.02734375 C6.04610026 33.5708755 5.97724892 37.11338877 5.89453125 40.65625 C3.25453125 40.65625 0.61453125 40.65625 -2.10546875 40.65625 C-2.12528809 39.79870117 -2.14510742 38.94115234 -2.16552734 38.05761719 C-2.24376396 34.86677358 -2.33046218 31.6763026 -2.42285156 28.48583984 C-2.46106213 27.10669757 -2.49592877 25.72745833 -2.52734375 24.34814453 C-2.57316499 22.36208033 -2.63213138 20.37633321 -2.69140625 18.390625 C-2.7385376 16.59963379 -2.7385376 16.59963379 -2.78662109 14.77246094 C-3.08889368 11.81824407 -3.4698208 10.10217278 -5.10546875 7.65625 C-8.16342793 5.82147449 -10.08152392 5.65582992 -13.66796875 5.71875 C-17.78790762 6.84236969 -18.88984862 8.07717134 -21.10546875 11.65625 C-22.16383536 14.83134982 -22.30790664 17.29907383 -22.421875 20.63671875 C-22.46376953 21.80009766 -22.50566406 22.96347656 -22.54882812 24.16210938 C-22.58814453 25.37705078 -22.62746094 26.59199219 -22.66796875 27.84375 C-22.71115234 29.07029297 -22.75433594 30.29683594 -22.79882812 31.56054688 C-22.90499965 34.59233381 -23.00704827 37.62420315 -23.10546875 40.65625 C-25.74546875 40.65625 -28.38546875 40.65625 -31.10546875 40.65625 C-31.10546875 27.12625 -31.10546875 13.59625 -31.10546875 -0.34375 C-28.46546875 -0.34375 -25.82546875 -0.34375 -23.10546875 -0.34375 C-22.77546875 0.64625 -22.44546875 1.63625 -22.10546875 2.65625 C-21.17734375 2.016875 -20.24921875 1.3775 -19.29296875 0.71875 C-12.65486175 -3.57649571 -6.98291426 -3.0719134 0 0 Z " fill="#66696F" transform="translate(618.10546875,31.34375)"/>
<path d="M0 0 C2.64 0 5.28 0 8 0 C8.01458252 0.82201904 8.02916504 1.64403809 8.04418945 2.4909668 C8.11876333 6.22361323 8.21539512 9.95537459 8.3125 13.6875 C8.33505859 14.98107422 8.35761719 16.27464844 8.38085938 17.60742188 C8.41630859 18.85458984 8.45175781 20.10175781 8.48828125 21.38671875 C8.51446533 22.53358154 8.54064941 23.68044434 8.56762695 24.86206055 C9.04134563 28.30006512 9.94532696 30.22800202 12 33 C15.21694364 34.60847182 18.52137222 34.61309149 22 34 C24.69105198 31.82425584 26.45532928 30.08934144 28 27 C28.15411106 24.9692523 28.24982453 22.93393579 28.31640625 20.8984375 C28.35830078 19.68671875 28.40019531 18.475 28.44335938 17.2265625 C28.48267578 15.95554687 28.52199219 14.68453125 28.5625 13.375 C28.60568359 12.09625 28.64886719 10.8175 28.69335938 9.5 C28.79969886 6.33344652 28.90172833 3.16681247 29 0 C31.64 0 34.28 0 37 0 C37 13.53 37 27.06 37 41 C34.69 41 32.38 41 30 41 C29.34 39.68 28.68 38.36 28 37 C26.824375 37.9590625 26.824375 37.9590625 25.625 38.9375 C20.68741472 42.81703129 16.12978073 42.62336753 10 42 C5.50387035 39.8322232 3.09593488 37.52280685 1 33 C0.00996205 29.08452115 -0.11605951 25.41703209 -0.09765625 21.38671875 C-0.09443359 20.13955078 -0.09121094 18.89238281 -0.08789062 17.60742188 C-0.07532227 15.66706055 -0.07532227 15.66706055 -0.0625 13.6875 C-0.05798828 12.37458984 -0.05347656 11.06167969 -0.04882812 9.70898438 C-0.03705949 6.4726099 -0.0206176 3.23632822 0 0 Z " fill="#64686E" transform="translate(485,31)"/>
<path d="M0 0 C4.50980392 4.01960784 4.50980392 4.01960784 6 7 C3.68164713 8.45970366 2.38987957 9.03077997 -0.375 8.8125 C-3 8 -3 8 -5.875 6.375 C-9.75190335 4.66916253 -11.93732668 4.98433167 -16 6 C-18.21442564 7.76111432 -18.21442564 7.76111432 -18.07421875 9.96875 C-17.08443957 12.357451 -17.08443957 12.357451 -13.83203125 13.34375 C-12.49705627 13.74570657 -11.15681293 14.13047322 -9.8125 14.5 C-3.38923483 16.31731405 2.12062649 18.18093974 6 24 C6.71112008 28.4155596 6.588448 31.9588997 4.375 35.875 C-1.13505047 40.80504516 -5.85830438 41.55361572 -13.09375 41.34765625 C-18.73590305 40.67272128 -22.20567569 38.10440089 -25.9375 33.875 C-28 31 -28 31 -28 29 C-25.69 28.34 -23.38 27.68 -21 27 C-20.21625 27.804375 -19.4325 28.60875 -18.625 29.4375 C-14.93032499 33.04420655 -13.10144254 33.12501707 -7.97265625 33.23046875 C-5.67855334 33.11387977 -5.67855334 33.11387977 -3 31 C-2.74969023 28.41619823 -2.74969023 28.41619823 -3 26 C-3.70125 25.74605469 -4.4025 25.49210937 -5.125 25.23046875 C-7.09636038 24.51531491 -9.06634787 23.79636854 -11.03515625 23.07421875 C-12.80685002 22.43230072 -14.58398611 21.80469657 -16.37109375 21.20703125 C-20.47391833 19.80322927 -23.53441861 18.64906046 -26 15 C-27.18273971 11.09038817 -27.41918835 8.08495808 -25.9375 4.25 C-18.79356361 -4.04618419 -9.4882735 -5.09555429 0 0 Z " fill="#65696E" transform="translate(742,32)"/>
<path d="M0 0 C1.98451347 1.88384974 3.4022167 3.75311723 5 6 C2.61426621 7.89213369 0.92824652 9.02391783 -2 10 C-2.495 9.360625 -2.99 8.72125 -3.5 8.0625 C-6.84938895 5.29925411 -9.7184682 4.91208354 -14 5 C-16.4243434 5.58255237 -16.4243434 5.58255237 -18 7 C-18.33 7.99 -18.66 8.98 -19 10 C-15.92731568 14.13264132 -10.71492258 14.67327503 -5.98046875 15.84179688 C-0.5286659 17.35957067 1.78300906 19.3274124 5 24 C6.44591065 27.5244072 6.03975655 28.87410424 4.875 32.5625 C2.38797684 37.12204247 -0.08119214 39.36039738 -5 41 C-11.94070932 41.71977726 -17.60316069 41.70832691 -23.375 37.51171875 C-25.81734352 35.23963476 -27.37603192 32.90960947 -29 30 C-26.4345406 27.4345406 -24.52313332 27.45953913 -21 27 C-20.38125 27.804375 -19.7625 28.60875 -19.125 29.4375 C-17.25835959 32.03874519 -17.25835959 32.03874519 -15 33 C-9.27499445 33.64077901 -9.27499445 33.64077901 -4.5 31 C-4.005 30.34 -3.51 29.68 -3 29 C-4.2048148 25.93132047 -4.2048148 25.93132047 -6.81591797 24.07446289 C-7.89317139 23.7765686 -7.89317139 23.7765686 -8.9921875 23.47265625 C-9.77980469 23.23740234 -10.56742188 23.00214844 -11.37890625 22.75976562 C-13.03471032 22.29722881 -14.69095742 21.83627484 -16.34765625 21.37695312 C-21.34262456 19.88172199 -24.20177434 18.6857427 -27 14 C-28.17556247 10.31657093 -28.18647847 8.54846608 -26.9375 4.875 C-24.34366186 1.02607889 -21.38535371 -1.07663727 -17.0625 -2.75 C-10.83423008 -3.50494181 -5.49174082 -3.13649633 0 0 Z " fill="#65696E" transform="translate(557,32)"/>
<path d="M0 0 C2.9375 2.6875 2.9375 2.6875 5 5 C4.67 5.99 4.34 6.98 4 8 C0.9375 9.1875 0.9375 9.1875 -2 10 C-2.495 9.360625 -2.99 8.72125 -3.5 8.0625 C-6.83575323 5.31050358 -9.72870038 4.88621538 -14 5 C-16.4237259 5.78785353 -16.4237259 5.78785353 -18 7 C-18.15511063 9.43078366 -18.15511063 9.43078366 -17 12 C-14.19400256 13.25246238 -11.67882013 14.1673437 -8.75 15 C-2.88305932 16.70170961 0.96044144 18.11495244 5 23 C6.53214888 26.06429776 6.22938548 28.6165642 6 32 C4.6399291 35.65519054 2.78652109 37.38638313 -0.5 39.3125 C-6.59636785 42.07948614 -13.00873234 41.95946321 -19.3125 39.9375 C-22.78551311 37.43369985 -25.58940414 34.54750809 -28 31 C-28 30.34 -28 29.68 -28 29 C-25.91836944 27.73615287 -24.52513785 26.98306007 -22.0625 27.0625 C-20 28 -20 28 -17.8125 30.5625 C-14.32807561 33.58233447 -12.52783334 33.49995421 -8.0859375 33.37109375 C-5.70217369 33.09061938 -5.70217369 33.09061938 -3 31 C-2.7497843 27.91634129 -2.7497843 27.91634129 -3 25 C-4.12535156 24.76216797 -4.12535156 24.76216797 -5.2734375 24.51953125 C-22.7516041 20.53521367 -22.7516041 20.53521367 -26.2421875 15.046875 C-27.4592403 11.75957775 -27.47238083 9.4838086 -27 6 C-24.61540991 1.79090148 -22.02245286 -0.57242881 -17.5625 -2.4375 C-10.7603826 -3.51151854 -6.15996777 -3.30813084 0 0 Z " fill="#64686D" transform="translate(704,32)"/>
<path d="M0 0 C2.97 0 5.94 0 9 0 C9.32798584 0.77714355 9.65597168 1.55428711 9.99389648 2.35498047 C11.2103322 5.23638697 12.42735407 8.11754496 13.64477539 10.99853516 C14.17170372 12.24583148 14.69839784 13.49322676 15.22485352 14.74072266 C15.98131816 16.53313746 16.73869322 18.32516796 17.49609375 20.1171875 C17.95169678 21.19597168 18.4072998 22.27475586 18.87670898 23.38623047 C19.54516156 24.94164304 20.24288216 26.48576432 21 28 C24.63 18.76 28.26 9.52 32 0 C34.97 0 37.94 0 41 0 C36.77053433 11.55366233 31.79211079 22.75559001 26.8125 34 C25.58188212 36.78534911 24.35213844 39.57108074 23.12321472 42.35717773 C22.36420729 44.07725163 21.60410211 45.79684168 20.84272766 47.51586914 C19.16146099 51.31984786 17.50642959 55.12227532 16 59 C13.36 59 10.72 59 8 59 C9.89971259 52.90092275 12.158843 47.53844189 15.3046875 41.96875 C17.30677665 33.42050418 9.84658286 22.73788157 6.3125 15 C5.4038276 13.00289139 4.49643728 11.00521919 3.59111023 9.0065918 C2.77867218 7.21411428 1.96231384 5.42341517 1.14575195 3.6328125 C0 1 0 1 0 0 Z " fill="#64686D" transform="translate(371,31)"/>
<path d="M0 0 C3.3 0 6.6 0 10 0 C10 22.11 10 44.22 10 67 C6.7 67 3.4 67 0 67 C0 44.89 0 22.78 0 0 Z " fill="#34AB55" transform="translate(225,4)"/>
<path d="M0 0 C2.64 0 5.28 0 8 0 C8 13.53 8 27.06 8 41 C5.36 41 2.72 41 0 41 C0 27.47 0 13.94 0 0 Z " fill="#686C71" transform="translate(569,31)"/>
<path d="M0 0 C1.875 1.125 1.875 1.125 3 3 C2.77669287 6.64734979 2.61627165 8.38372835 0 11 C-2.84602594 11.36487512 -4.3864306 11.40199375 -6.8125 9.8125 C-8.42525784 7.35092224 -8.4334014 5.88934264 -8 3 C-5.85607122 -0.27231235 -3.76836426 -0.56525464 0 0 Z " fill="#666A6F" transform="translate(576,11)"/>
</svg>
