<?xml version="1.0" encoding="UTF-8"?>
<svg version="1.1" xmlns="http://www.w3.org/2000/svg" width="1903" height="402">
<path d="M0 0 C14.18415096 10.96653819 27.38343358 22.94884119 38.9375 36.6875 C39.86924635 37.77911152 40.80159126 38.87021229 41.734375 39.9609375 C42.73994051 41.14032056 43.74514764 42.32000927 44.75 43.5 C45.23090088 44.06388428 45.71180176 44.62776855 46.20727539 45.20874023 C48.26476809 47.63819663 50.16916709 50.03500063 51.9375 52.6875 C53.41735345 50.9172369 54.89644972 49.14635118 56.375 47.375 C56.8294751 46.83101563 57.2839502 46.28703125 57.75219727 45.7265625 C60.66004582 42.23977348 63.52612405 38.7227899 66.375 35.1875 C71.33075463 29.12950222 76.56051277 23.36874428 81.9375 17.6875 C82.42702148 17.16397949 82.91654297 16.64045898 83.42089844 16.10107422 C103.69108286 -5.46141646 130.84159082 -24.56417295 161.40625 -25.6484375 C198.52163883 -26.12612654 228.28107264 -13.05853025 254.9375 12.6875 C255.83984375 13.52667969 256.7421875 14.36585937 257.671875 15.23046875 C271.16616811 28.12024873 281.45212968 43.71570538 290.9375 59.6875 C291.30681641 60.30737793 291.67613281 60.92725586 292.05664062 61.56591797 C312.47636543 96.40243701 322.58581122 137.00472769 327.9375 176.6875 C328.05609375 177.53505859 328.1746875 178.38261719 328.296875 179.25585938 C331.95788207 206.56087046 332.01562361 236.60599812 326.9375 263.6875 C326.79828125 264.45271973 326.6590625 265.21793945 326.515625 266.00634766 C322.49198437 287.29345567 314.25295386 308.25758788 299.9375 324.6875 C299.16277344 325.65816406 298.38804687 326.62882812 297.58984375 327.62890625 C285.14744849 342.53761673 265.04521636 351.82270084 245.9375 353.6875 C216.590399 355.5059649 189.46967815 352.01713724 166.2578125 332.42578125 C164.57126758 330.91609286 162.89998303 329.38914414 161.24609375 327.84375 C159.13051389 325.86777693 156.96110223 323.99234161 154.75 322.125 C150.74180342 318.61085548 147.32071332 314.80080945 143.9375 310.6875 C143.51484863 310.17719238 143.09219727 309.66688477 142.65673828 309.14111328 C117.85193052 279.0869762 98.16862778 245.15739215 78.453125 211.65625 C74.08884395 204.24056211 69.70290462 196.83774345 65.3125 189.4375 C64.90359528 188.74821411 64.49469055 188.05892822 64.07339478 187.34875488 C57.77894195 176.74298795 51.42163226 166.17868029 44.9375 155.6875 C37.61170013 168.10327041 30.401381 180.56495156 23.4375 193.1875 C18.01918351 203.00683366 12.4661961 212.73405726 6.78295898 222.40234375 C3.97663595 227.17919968 1.20300661 231.96586585 -1.4699707 236.81860352 C-24.55371989 278.70201191 -57.80501327 336.20698825 -107.125 350.625 C-126.35981533 356.09134208 -151.07682365 356.30372055 -170.0625 349.6875 C-171.02446289 349.36604004 -171.02446289 349.36604004 -172.00585938 349.03808594 C-185.66981176 344.40475164 -196.79728454 336.78332247 -207.0625 326.6875 C-207.82304687 325.93984375 -208.58359375 325.1921875 -209.3671875 324.421875 C-237.21357372 295.32288317 -242.04929121 251.71780719 -241.34765625 213.3671875 C-239.94742901 154.35872437 -223.83095249 91.13992174 -189.0625 42.6875 C-188.37929687 41.73101562 -187.69609375 40.77453125 -186.9921875 39.7890625 C-163.98256393 8.36731849 -133.62205961 -17.9545561 -94.19873047 -24.89575195 C-59.73486731 -29.47537319 -27.81438452 -20.30193547 0 0 Z M114.1875 49.125 C101.46936183 62.26585085 90.88288208 77.38472012 80.9375 92.6875 C84.24061439 98.83335495 87.82524996 104.69267085 91.6875 110.5 C96.97314211 118.54980551 102.07254289 126.70140965 107.0625 134.9375 C107.41523987 135.51968292 107.76797974 136.10186584 108.13140869 136.70169067 C113.59484315 145.73079187 118.97822401 154.80669535 124.35116577 163.88983154 C132.1143172 177.01284907 140.01696497 190.03052769 148.17871094 202.91113281 C149.92919299 205.67438682 151.67203823 208.44234569 153.4140625 211.2109375 C180.4971958 259.94619745 180.4971958 259.94619745 223.75 291.0625 C234.21203837 293.11388007 244.14780263 291.47327066 253.515625 286.25 C265.64150489 277.6711462 270.35870168 263.37248207 273.32421875 249.47265625 C282.84469855 190.71249751 267.59703332 115.8125583 233.0625 67 C218.82378335 48.21280442 200.60491101 28.31506044 175.9375 24.6875 C174.5453125 24.4709375 174.5453125 24.4709375 173.125 24.25 C149.48114127 21.46836956 130.5259103 33.19561805 114.1875 49.125 Z M-130.86328125 67.94140625 C-155.56914038 98.79081827 -168.87650553 139.07515257 -175.0625 177.6875 C-175.28679687 179.07799561 -175.28679687 179.07799561 -175.515625 180.49658203 C-177.6576419 194.41738369 -178.36534201 208.25116724 -178.4375 222.3125 C-178.44535522 223.06096191 -178.45321045 223.80942383 -178.46130371 224.58056641 C-178.62083864 244.05453476 -175.5625364 263.99970331 -163.0625 279.6875 C-154.98039448 287.636384 -145.67137261 291.50886257 -134.4375 291.9375 C-118.74736911 291.70191245 -107.9713063 284.25804874 -97.0625 273.6875 C-96.52044922 273.16953857 -95.97839844 272.65157715 -95.41992188 272.11791992 C-91.16889445 267.98205372 -87.48873954 263.61912912 -83.9375 258.875 C-83.38255859 258.13999268 -82.82761719 257.40498535 -82.25585938 256.64770508 C-80.51607826 254.33396292 -78.78749578 252.0122816 -77.0625 249.6875 C-76.51754883 248.9553125 -75.97259766 248.223125 -75.41113281 247.46875 C-66.79717153 235.85208939 -58.84404852 223.87284454 -51.0625 211.6875 C-49.76861412 209.67032594 -48.47432865 207.65340815 -47.1796875 205.63671875 C-40.09047315 194.58472288 -33.03880641 183.50899708 -25.99584961 172.42749023 C-22.15690224 166.39266716 -18.28738298 160.37870219 -14.39208984 154.38012695 C-9.51902813 146.8683032 -4.70522015 139.31855033 0.10498047 131.76635742 C0.7445166 130.76451416 1.38405273 129.7626709 2.04296875 128.73046875 C2.67251465 127.73966309 3.30206055 126.74885742 3.95068359 125.72802734 C5.33984013 123.60212964 6.7739625 121.50524529 8.24072266 119.43212891 C8.98241699 118.37815918 9.72411133 117.32418945 10.48828125 116.23828125 C11.17188721 115.29251221 11.85549316 114.34674316 12.55981445 113.37231445 C14.16891205 110.79644967 14.16891205 110.79644967 13.78100586 108.04101562 C12.53047461 104.55183436 10.41212559 101.79361957 8.1875 98.875 C7.69942871 98.224104 7.21135742 97.57320801 6.70849609 96.90258789 C-22.01692265 58.55703014 -22.01692265 58.55703014 -63.98095703 37.97314453 C-92.40093171 34.07314801 -112.68534161 47.02208971 -130.86328125 67.94140625 Z " fill="#0076F3" transform="translate(255.0625,43.3125)"/>
<path d="M0 0 C24.09 0 48.18 0 73 0 C77.29 7.92 81.58 15.84 86 24 C90.86267625 32.60327278 90.86267625 32.60327278 95.73828125 41.19921875 C99.69956534 48.20801102 103.51939505 55.29173816 107.34033203 62.37768555 C111.69163072 70.44486978 116.11998156 78.46571773 120.58789062 86.46875 C131.79322188 106.55465499 142.90864587 126.68998958 154.01037598 146.83325195 C161.65842834 160.70973029 169.31169709 174.58327035 177 188.4375 C177.62213379 189.55906494 178.24426758 190.68062988 178.88525391 191.83618164 C182.773922 198.83294577 186.71988526 205.79114245 190.77734375 212.69140625 C192 215 192 215 192 217 C192.66 217 193.32 217 194 217 C194.27005859 216.28932373 194.54011719 215.57864746 194.81835938 214.84643555 C196.02568033 211.93813907 197.40978429 209.22713987 198.90625 206.45703125 C199.47980225 205.39299072 200.05335449 204.3289502 200.64428711 203.23266602 C201.25667236 202.10401123 201.86905762 200.97535645 202.5 199.8125 C203.14015069 198.62887644 203.78020512 197.4452008 204.42016602 196.26147461 C209.08702823 187.63961439 213.81871856 179.05559125 218.60400391 170.49902344 C221.45254195 165.39975176 224.28801201 160.29320356 227.125 155.1875 C227.76042725 154.04418213 228.39585449 152.90086426 229.05053711 151.72290039 C234.05483269 142.71532503 239.03475644 133.69442754 244.00860596 124.67001343 C248.8221212 115.93720422 253.65310091 107.21434324 258.5 98.5 C263.66235617 89.21739294 268.80835635 79.92598426 273.9375 70.625 C274.26894012 70.02399475 274.60038025 69.4229895 274.94186401 68.80377197 C277.29515541 64.5361673 279.64766701 60.268133 282 56 C284.36325237 51.7120546 286.7268309 47.42428952 289.09109497 43.13690186 C289.99654874 41.49462018 290.90149266 39.85205742 291.80639648 38.20947266 C298.83916963 25.4552026 305.92662074 12.73208266 313 0 C336.43 0 359.86 0 384 0 C384 119.13 384 238.26 384 361 C364.53 361 345.06 361 325 361 C324.67 271.57 324.34 182.14 324 90 C319.05 98.91 314.1 107.82 309 117 C284.625 160.875 284.625 160.875 260.25 204.75 C259.3216333 206.4211084 259.3216333 206.4211084 258.37451172 208.12597656 C257.12624991 210.37278279 255.87787776 212.61952773 254.62939453 214.86621094 C251.47688621 220.53957447 248.32638684 226.21403722 245.1796875 231.890625 C239.02670839 242.98675429 232.85612493 254.07252262 226.625 265.125 C226.07118652 266.10952148 225.51737305 267.09404297 224.94677734 268.10839844 C224.44098145 269.00333008 223.93518555 269.89826172 223.4140625 270.8203125 C222.9701416 271.60680176 222.5262207 272.39329102 222.06884766 273.20361328 C221 275 221 275 220 276 C218.2507128 276.09365006 216.49763746 276.11744438 214.74584961 276.11352539 C213.62476303 276.11344986 212.50367645 276.11337433 211.34861755 276.11329651 C209.51896202 276.10555458 209.51896202 276.10555458 207.65234375 276.09765625 C206.41078018 276.0962413 205.16921661 276.09482635 203.89002991 276.09336853 C200.58394509 276.08870591 197.27792854 276.07971497 193.97186279 276.06866455 C190.6003885 276.05844827 187.22890717 276.05387045 183.85742188 276.04882812 C177.23826225 276.03777395 170.61913507 276.02101736 164 276 C100.25 161.25 100.25 161.25 98.37475586 157.87451172 C97.12562495 155.62610861 95.87643881 153.37773618 94.62719727 151.12939453 C91.48844509 145.4802133 88.35067557 139.8304904 85.21484375 134.1796875 C84.58191406 133.03951172 83.94898438 131.89933594 83.296875 130.72460938 C82.13113256 128.62455866 80.96571683 126.52432652 79.80078125 124.42382812 C73.23441497 112.5967335 66.60981027 100.80323263 60 89 C59.67 178.76 59.34 268.52 59 361 C39.53 361 20.06 361 0 361 C0 241.87 0 122.74 0 0 Z " fill="#0A2730" transform="translate(704,30)"/>
<path d="M0 0 C4.06018895 3.74831099 7.92804362 7.39206543 11 12 C11.33 1.77 11.66 -8.46 12 -19 C30.48 -19 48.96 -19 68 -19 C68 69.77 68 158.54 68 250 C49.52 250 31.04 250 12 250 C11.67 238.78 11.34 227.56 11 216 C7.37 219.96 3.74 223.92 0 228 C-20.95987926 248.08655096 -47.5943722 256.43713548 -76.25 256.3125 C-76.93453247 256.31001251 -77.61906494 256.30752502 -78.32434082 256.30496216 C-105.52843231 256.1520811 -130.29596756 247.99605469 -151 230 C-151.81984375 229.31292969 -152.6396875 228.62585938 -153.484375 227.91796875 C-164.06935523 218.79581964 -172.18998206 208.16172901 -179 196 C-179.33241699 195.40767578 -179.66483398 194.81535156 -180.00732422 194.20507812 C-193.8187644 169.21357794 -198.32766103 142.94431181 -198.4375 114.6875 C-198.44385468 113.85253998 -198.45020935 113.01757996 -198.45675659 112.15731812 C-198.64252288 72.90272921 -185.77907854 36.68140341 -158.78515625 7.7265625 C-116.50862089 -33.66056468 -45.50759735 -38.57869865 0 0 Z M-113 44 C-113.72703125 44.61488281 -114.4540625 45.22976562 -115.203125 45.86328125 C-131.44278483 60.79225987 -139.11629267 84.17891407 -140.1262207 105.68823242 C-140.8726553 134.11672708 -137.1483823 160.97266045 -117.7265625 183.2109375 C-104.09645364 197.15348439 -87.26382802 203.88099363 -68.03393555 204.40283203 C-46.4425259 204.630769 -26.35235252 199.94986973 -10 185 C-8.66195313 183.79923828 -8.66195313 183.79923828 -7.296875 182.57421875 C0.96979794 174.77056984 10.33329218 164.18457288 11.29434204 152.3866272 C11.32432042 150.97228481 11.34351388 149.55768757 11.35400391 148.14306641 C11.3671463 147.36663788 11.3802887 146.59020935 11.39382935 145.79025269 C11.43315452 143.22735126 11.45659816 140.6646844 11.4765625 138.1015625 C11.48471355 137.2202 11.49286461 136.33883751 11.50126266 135.43076706 C11.54294094 130.75805361 11.57155322 126.08545656 11.59033203 121.41259766 C11.612354 116.62332463 11.68103349 111.83593786 11.76067543 107.04732704 C11.81339898 103.33398387 11.82975031 99.62107497 11.83689499 95.90739059 C11.84654007 94.14452876 11.86951683 92.38168052 11.90697098 90.61919022 C12.24643376 73.57415363 6.8214675 62.42025602 -4.44921875 49.64453125 C-18.63310589 34.93933739 -37.2739247 26.93824802 -57.62109375 25.796875 C-78.48324128 25.54063573 -96.87237756 30.13883338 -113 44 Z " fill="#0A2730" transform="translate(1827,141)"/>
<path d="M0 0 C0.99128906 0.87011719 1.98257812 1.74023438 3.00390625 2.63671875 C4.22787109 3.70986328 4.22787109 3.70986328 5.4765625 4.8046875 C27.82189087 25.81008436 39.14451244 55.97984469 44.00390625 85.63671875 C44.1210498 86.34844238 44.23819336 87.06016602 44.35888672 87.79345703 C46.86749787 104.04165316 46.00390625 120.14383073 46.00390625 136.63671875 C-19.00609375 136.63671875 -84.01609375 136.63671875 -150.99609375 136.63671875 C-144.4330974 160.26350563 -135.71349656 182.27316452 -113.53320312 194.97558594 C-90.8574577 207.26310682 -61.78279816 208.15007723 -37.12011719 201.27392578 C-19.63800049 196.02929077 -5.43489078 186.76109718 8.00390625 174.63671875 C11.82839028 178.36331837 15.35752577 182.25787064 18.81640625 186.32421875 C19.60470825 187.24787231 19.60470825 187.24787231 20.40893555 188.19018555 C27.17781889 196.1526635 33.61353785 204.36917964 40.00390625 212.63671875 C36.14022506 217.47997438 32.1684035 221.41371144 27.12890625 225.01171875 C26.47889648 225.47940674 25.82888672 225.94709473 25.15917969 226.42895508 C6.96762085 239.26633806 -13.25063223 247.96922368 -34.99609375 252.63671875 C-35.72183594 252.80042969 -36.44757813 252.96414063 -37.1953125 253.1328125 C-59.42218028 257.96127031 -86.96664473 258.43860629 -108.99609375 252.63671875 C-110.18380371 252.33870361 -110.18380371 252.33870361 -111.39550781 252.03466797 C-135.33365339 245.90551102 -155.59003146 234.13848448 -172.99609375 216.63671875 C-173.81851562 215.81429687 -174.6409375 214.991875 -175.48828125 214.14453125 C-203.26632903 184.82859847 -210.98362326 144.06396303 -210.13232422 105.08398438 C-209.29764811 83.96278967 -204.26969968 63.5931355 -194.99609375 44.63671875 C-194.21298828 42.99316406 -194.21298828 42.99316406 -193.4140625 41.31640625 C-178.89124427 12.55345237 -153.36043821 -9.46101078 -122.87109375 -19.73828125 C-81.79680659 -32.93567446 -33.65572093 -28.43569066 0 0 Z M-130.8046875 46.04296875 C-141.16302532 58.30310478 -150.99609375 76.27456512 -150.99609375 92.63671875 C-104.79609375 92.63671875 -58.59609375 92.63671875 -10.99609375 92.63671875 C-13.04700373 70.07670895 -19.87634165 51.24426589 -37.53515625 36.51953125 C-66.42409323 15.15088898 -106.45943398 20.6089293 -130.8046875 46.04296875 Z " fill="#0A2730" transform="translate(1348.99609375,141.36328125)"/>
<path d="M0 0 C19.14 0 38.28 0 58 0 C58 26.07 58 52.14 58 79 C84.73 79 111.46 79 139 79 C139 94.84 139 110.68 139 127 C112.27 127 85.54 127 58 127 C58.06161161 150.95909446 58.06161161 150.95909446 58.16015625 174.91796875 C58.2085733 184.69872786 58.25306491 194.47938502 58.27099609 204.26025391 C58.28407846 211.38596807 58.31120893 218.51147298 58.35461307 225.63706923 C58.37708133 229.40359994 58.3929196 233.169874 58.39188385 236.93647766 C57.59777816 267.05647834 57.59777816 267.05647834 71 293 C86.46223894 305.0461629 107.59900964 302.62335984 125.8125 300.5 C130.164375 300.005 134.51625 299.51 139 299 C139 314.84 139 330.68 139 347 C133.35876239 349.1154641 128.51468194 350.67956332 122.6875 351.625 C121.93750732 351.74979736 121.18751465 351.87459473 120.41479492 352.00317383 C92.15950184 356.59013135 59.76356392 356.030707 35 340 C30.61695354 336.71663829 26.78441749 332.94532973 23 329 C22.39800781 328.39414062 21.79601563 327.78828125 21.17578125 327.1640625 C-2.28641281 301.91603215 -0.16594553 262.57220759 -0.10139394 230.72305679 C-0.09506782 227.06626831 -0.09454938 223.40947866 -0.09336853 219.75268555 C-0.09028215 212.85418022 -0.08210573 205.95569106 -0.07201904 199.0571928 C-0.06077342 191.19240292 -0.05532633 183.32761219 -0.05032361 175.46281624 C-0.03992032 159.30853324 -0.02160907 143.15427249 0 127 C-17.49 127 -34.98 127 -53 127 C-53 111.16 -53 95.32 -53 79 C-35.51 79 -18.02 79 0 79 C0 52.93 0 26.86 0 0 Z " fill="#0A2730" transform="translate(1464,43)"/>
</svg>
